STARTFONT 2.1
COMMENT Exported by Fony v1.4.7
FONT 16X16TG
SIZE 16 96 96
FONTBOUNDINGBOX 16 15 0 -4
STARTPROPERTIES 6
COPYRIGHT "Tangar @ http://tangar.info for TomeNET @ http://tomenet.eu"
RESOLUTION_X 96
RESOLUTION_Y 96
FONT_ASCENT 12
FONT_DESCENT 4
DEFAULT_CHAR 31
ENDPROPERTIES
CHARS 256
STARTCHAR 000
ENCODING 0
SWIDTH 1152 0
DWIDTH 16 0
BBX 16 16 0 -4
BITMAP
8000
4001
2002
1004
0808
0410
0220
0140
0080
00C0
0120
0230
0C18
1004
2002
2001
ENDCHAR
STARTCHAR 001
ENCODING 1
SWIDTH 1152 0
DWIDTH 16 0
BBX 13 1 2 -3
BITMAP
9248
ENDCHAR
STARTCHAR 002
ENCODING 2
SWIDTH 1152 0
DWIDTH 16 0
BBX 16 16 0 -4
BITMAP
FFFF
FFFF
FFFF
FFFF
FFFF
FFFF
FFFF
FFFF
FFFF
FFFF
FFFF
FFFF
FFFF
FFFF
FFFF
FFFF
ENDCHAR
STARTCHAR 003
ENCODING 3
SWIDTH 1152 0
DWIDTH 16 0
BBX 14 1 1 -2
BITMAP
DB6C
ENDCHAR
STARTCHAR 004
ENCODING 4
SWIDTH 1152 0
DWIDTH 16 0
BBX 4 3 6 -2
BITMAP
60
D0
60
ENDCHAR
STARTCHAR 005
ENCODING 5
SWIDTH 1152 0
DWIDTH 16 0
BBX 14 3 1 -1
BITMAP
9248
0000
4924
ENDCHAR
STARTCHAR 006
ENCODING 6
SWIDTH 1152 0
DWIDTH 16 0
BBX 15 5 0 -1
BITMAP
0410
0A28
2492
0140
9088
ENDCHAR
STARTCHAR 007
ENCODING 7
SWIDTH 1152 0
DWIDTH 16 0
BBX 15 1 1 0
BITMAP
EEEE
ENDCHAR
STARTCHAR 008
ENCODING 8
SWIDTH 1152 0
DWIDTH 16 0
BBX 16 3 0 2
BITMAP
2222
5555
8888
ENDCHAR
STARTCHAR 009
ENCODING 9
SWIDTH 1152 0
DWIDTH 16 0
BBX 5 4 6 1
BITMAP
88
D8
70
20
ENDCHAR
STARTCHAR 010
ENCODING 10
SWIDTH 1152 0
DWIDTH 16 0
BBX 16 14 0 -4
BITMAP
FF3F
FF3F
0000
E1FF
F3FF
F3FF
E1FF
0000
FF3F
FF3F
0000
0000
F3FF
F3FF
ENDCHAR
STARTCHAR 011
ENCODING 11
SWIDTH 1152 0
DWIDTH 16 0
BBX 16 14 0 -4
BITMAP
FF3F
FF3F
0000
F3FF
F3FF
F3FF
F3FF
0000
FF3F
FF3F
0000
0000
F3FF
F3FF
ENDCHAR
STARTCHAR 012
ENCODING 12
SWIDTH 1152 0
DWIDTH 16 0
BBX 16 14 0 -4
BITMAP
FF3F
FF2F
0000
F3FF
93FF
93FF
F3FF
0000
FF2F
FF3F
0000
0000
93FF
F3FF
ENDCHAR
STARTCHAR 013
ENCODING 13
SWIDTH 1152 0
DWIDTH 16 0
BBX 16 16 0 -4
BITMAP
FFFF
7DEF
3807
87F0
E00B
6C1B
2FFB
2FFB
E3EB
EC1B
3FF7
37F7
F80F
FFFF
38C6
BAD6
ENDCHAR
STARTCHAR 014
ENCODING 14
SWIDTH 1152 0
DWIDTH 16 0
BBX 16 15 0 -4
BITMAP
0030
0078
08F8
1DBC
3DEC
2E76
6E7E
FDF9
FBDF
F7AC
EFB6
CFF8
89F8
3FFC
7FFE
ENDCHAR
STARTCHAR 015
ENCODING 15
SWIDTH 1152 0
DWIDTH 16 0
BBX 16 14 0 -4
BITMAP
0780
0FC0
1E60
3FF0
7FB0
7F10
CDF8
E338
FFFC
6FFE
1FFE
1FFF
7FFF
7FFF
ENDCHAR
STARTCHAR 016
ENCODING 16
SWIDTH 1152 0
DWIDTH 16 0
BBX 16 15 0 -4
BITMAP
FFFF
FFFF
CB4F
FFFF
ED37
FFFF
F4D3
FFFF
D347
FFFF
CD13
FFFF
F443
FFFF
FFFF
ENDCHAR
STARTCHAR 017
ENCODING 17
SWIDTH 1152 0
DWIDTH 16 0
BBX 16 15 0 -4
BITMAP
FFFF
FFFF
CB4F
D69B
ED37
DA6B
F4D3
E9A3
D347
E68B
CD13
DA23
F443
FFFF
FFFF
ENDCHAR
STARTCHAR 018
ENCODING 18
SWIDTH 1152 0
DWIDTH 16 0
BBX 16 15 0 -4
BITMAP
FFFF
FFFF
CB03
D703
EF03
DB03
F703
EB03
D303
E703
CF03
DB03
F703
FFFF
FFFF
ENDCHAR
STARTCHAR 019
ENCODING 19
SWIDTH 1152 0
DWIDTH 16 0
BBX 16 15 0 -4
BITMAP
FFFF
FFFF
D24B
FFFF
C927
FFFF
C003
FFFF
CD9B
FFFF
CFA3
FFFF
C7E3
FFFF
FFFF
ENDCHAR
STARTCHAR 020
ENCODING 20
SWIDTH 1152 0
DWIDTH 16 0
BBX 16 15 0 -4
BITMAP
FFFF
FFFF
D24B
E493
C927
FFFF
C003
C9B3
CD9B
D9F3
CFA3
C183
C7E3
FFFF
FFFF
ENDCHAR
STARTCHAR 021
ENCODING 21
SWIDTH 1152 0
DWIDTH 16 0
BBX 16 15 0 -4
BITMAP
FFFF
FFFF
D303
E703
CB03
FFFF
C003
C9B3
CD9B
D9F3
CFA3
C183
C7E3
FFFF
FFFF
ENDCHAR
STARTCHAR 022
ENCODING 22
SWIDTH 1152 0
DWIDTH 16 0
BBX 16 16 0 -4
BITMAP
8000
4001
2002
1004
0808
0410
0220
0000
0080
00C0
0020
0220
0808
0000
2002
2001
ENDCHAR
STARTCHAR 023
ENCODING 23
SWIDTH 1152 0
DWIDTH 16 0
BBX 16 16 0 -4
BITMAP
8000
4001
2002
1004
0808
0410
0220
0000
0080
00C0
0020
0220
0808
0000
2002
2001
ENDCHAR
STARTCHAR 024
ENCODING 24
SWIDTH 1152 0
DWIDTH 16 0
BBX 16 16 0 -4
BITMAP
8000
4001
2002
1004
0808
0410
0220
0000
0080
00C0
0020
0220
0808
0000
2002
2001
ENDCHAR
STARTCHAR 025
ENCODING 25
SWIDTH 1152 0
DWIDTH 16 0
BBX 16 16 0 -4
BITMAP
8000
4001
2002
1004
0808
0410
0220
0000
0080
00C0
0020
0220
0808
0000
2002
2001
ENDCHAR
STARTCHAR 026
ENCODING 26
SWIDTH 1152 0
DWIDTH 16 0
BBX 16 16 0 -4
BITMAP
8000
4001
2002
1004
0808
0410
0220
0000
0080
00C0
0020
0220
0808
0000
2002
2001
ENDCHAR
STARTCHAR 027
ENCODING 27
SWIDTH 1152 0
DWIDTH 16 0
BBX 16 16 0 -4
BITMAP
8000
4001
2002
1004
0808
0410
0220
0000
0080
00C0
0020
0220
0808
0000
2002
2001
ENDCHAR
STARTCHAR 028
ENCODING 28
SWIDTH 1152 0
DWIDTH 16 0
BBX 16 16 0 -4
BITMAP
8000
4001
2002
1004
0808
0410
0220
0000
0080
00C0
0020
0220
0808
0000
2002
2001
ENDCHAR
STARTCHAR 029
ENCODING 29
SWIDTH 1152 0
DWIDTH 16 0
BBX 16 16 0 -4
BITMAP
8000
4001
2002
1004
0808
0410
0220
0000
0080
00C0
0020
0220
0808
0000
2002
2001
ENDCHAR
STARTCHAR 030
ENCODING 30
SWIDTH 1152 0
DWIDTH 16 0
BBX 16 16 0 -4
BITMAP
8000
4001
2002
1004
0808
0410
0220
0000
0080
00C0
0020
0220
0808
0000
2002
2001
ENDCHAR
STARTCHAR 031
ENCODING 31
SWIDTH 1152 0
DWIDTH 16 0
BBX 16 16 0 -4
BITMAP
8000
4001
2002
1004
0808
0410
0220
0000
0080
00C0
0020
0220
0808
0000
2002
2001
ENDCHAR
STARTCHAR 032
ENCODING 32
SWIDTH 1152 0
DWIDTH 16 0
BBX 0 0 0 0
BITMAP
ENDCHAR
STARTCHAR 033
ENCODING 33
SWIDTH 1152 0
DWIDTH 16 0
BBX 5 12 6 -2
BITMAP
70
70
F8
C8
F8
F8
F8
78
30
00
70
70
ENDCHAR
STARTCHAR 034
ENCODING 34
SWIDTH 1152 0
DWIDTH 16 0
BBX 8 3 4 6
BITMAP
E7
E7
C3
ENDCHAR
STARTCHAR 035
ENCODING 35
SWIDTH 1152 0
DWIDTH 16 0
BBX 11 10 3 -2
BITMAP
3180
3180
FFE0
FFE0
3180
3180
FFE0
FFE0
3180
3180
ENDCHAR
STARTCHAR 036
ENCODING 36
SWIDTH 1152 0
DWIDTH 16 0
BBX 11 14 3 -3
BITMAP
0300
0300
3FE0
7660
6620
6600
3F80
0FC0
8C60
8C60
FFC0
7F80
0C00
0800
ENDCHAR
STARTCHAR 037
ENCODING 37
SWIDTH 1152 0
DWIDTH 16 0
BBX 14 12 1 -3
BITMAP
0020
7860
C8C0
C980
7980
0330
0678
0CCC
0CCC
38C8
3078
0030
ENDCHAR
STARTCHAR 038
ENCODING 38
SWIDTH 1152 0
DWIDTH 16 0
BBX 12 10 2 -2
BITMAP
1F80
30C0
3180
1300
3E00
7730
C1E0
C1C0
7FB0
3E30
ENDCHAR
STARTCHAR 039
ENCODING 39
SWIDTH 1152 0
DWIDTH 16 0
BBX 4 5 5 5
BITMAP
70
70
60
60
80
ENDCHAR
STARTCHAR 040
ENCODING 40
SWIDTH 1152 0
DWIDTH 16 0
BBX 6 13 6 -3
BITMAP
0C
18
30
70
70
E0
E0
E0
70
70
30
18
0C
ENDCHAR
STARTCHAR 041
ENCODING 41
SWIDTH 1152 0
DWIDTH 16 0
BBX 6 13 4 -3
BITMAP
C0
60
30
38
38
1C
1C
1C
38
38
30
60
C0
ENDCHAR
STARTCHAR 042
ENCODING 42
SWIDTH 1152 0
DWIDTH 16 0
BBX 10 9 3 -1
BITMAP
0400
CC40
6DC0
3D80
FFC0
FFC0
7D80
EDC0
C840
ENDCHAR
STARTCHAR 043
ENCODING 43
SWIDTH 1152 0
DWIDTH 16 0
BBX 13 9 2 -1
BITMAP
0700
0700
0700
0700
FFF8
FFF8
0700
0700
0700
ENDCHAR
STARTCHAR 044
ENCODING 44
SWIDTH 1152 0
DWIDTH 16 0
BBX 7 6 4 -3
BITMAP
1C
3E
3E
1C
30
E0
ENDCHAR
STARTCHAR 045
ENCODING 45
SWIDTH 1152 0
DWIDTH 16 0
BBX 12 2 3 2
BITMAP
FFF0
FFF0
ENDCHAR
STARTCHAR 046
ENCODING 46
SWIDTH 1152 0
DWIDTH 16 0
BBX 3 2 7 2
BITMAP
E0
E0
ENDCHAR
STARTCHAR 047
ENCODING 47
SWIDTH 1152 0
DWIDTH 16 0
BBX 9 11 4 -2
BITMAP
0180
0380
0300
0600
0C00
1C00
1800
7000
6000
C000
C000
ENDCHAR
STARTCHAR 048
ENCODING 48
SWIDTH 1152 0
DWIDTH 16 0
BBX 9 11 4 -2
BITMAP
0600
1F80
3B80
6180
6180
E380
E300
C700
C600
FC00
7800
ENDCHAR
STARTCHAR 049
ENCODING 49
SWIDTH 1152 0
DWIDTH 16 0
BBX 7 11 5 -2
BITMAP
04
1C
3C
FC
18
18
38
38
38
7C
FE
ENDCHAR
STARTCHAR 050
ENCODING 50
SWIDTH 1152 0
DWIDTH 16 0
BBX 10 11 3 -2
BITMAP
0FC0
3CC0
70C0
60C0
4180
0300
0E00
1800
70C0
FFC0
FFC0
ENDCHAR
STARTCHAR 051
ENCODING 51
SWIDTH 1152 0
DWIDTH 16 0
BBX 10 11 3 -2
BITMAP
0F00
1F80
31C0
01C0
0180
0F80
03C0
80C0
C1C0
7F80
3E00
ENDCHAR
STARTCHAR 052
ENCODING 52
SWIDTH 1152 0
DWIDTH 16 0
BBX 9 11 4 -2
BITMAP
2000
6180
6380
E300
E300
FF00
0300
0600
0600
0C00
0C00
ENDCHAR
STARTCHAR 053
ENCODING 53
SWIDTH 1152 0
DWIDTH 16 0
BBX 12 10 2 -2
BITMAP
07F0
0C00
1800
1F80
01C0
00C0
80C0
C0C0
7F80
0E00
ENDCHAR
STARTCHAR 054
ENCODING 54
SWIDTH 1152 0
DWIDTH 16 0
BBX 9 10 4 -2
BITMAP
3F00
6180
C000
C000
FF00
E380
C180
E380
7F00
3E00
ENDCHAR
STARTCHAR 055
ENCODING 55
SWIDTH 1152 0
DWIDTH 16 0
BBX 10 10 3 -2
BITMAP
7FC0
C1C0
0180
0380
0700
0E00
0C00
1C00
3800
3800
ENDCHAR
STARTCHAR 056
ENCODING 56
SWIDTH 1152 0
DWIDTH 16 0
BBX 9 11 4 -2
BITMAP
1E00
3F80
6380
6380
7700
7C00
FE00
8300
C300
FE00
7800
ENDCHAR
STARTCHAR 057
ENCODING 57
SWIDTH 1152 0
DWIDTH 16 0
BBX 9 10 4 -2
BITMAP
1F00
7380
6180
6180
3F80
1F80
0700
0600
FC00
F800
ENDCHAR
STARTCHAR 058
ENCODING 58
SWIDTH 1152 0
DWIDTH 16 0
BBX 4 6 7 -2
BITMAP
F0
F0
00
00
F0
F0
ENDCHAR
STARTCHAR 059
ENCODING 59
SWIDTH 1152 0
DWIDTH 16 0
BBX 5 9 6 -2
BITMAP
70
78
30
00
30
78
30
60
C0
ENDCHAR
STARTCHAR 060
ENCODING 60
SWIDTH 1152 0
DWIDTH 16 0
BBX 16 14 0 -3
BITMAP
0007
0037
0037
0337
1337
1337
9337
9337
1337
0337
0037
0037
0007
0007
ENDCHAR
STARTCHAR 061
ENCODING 61
SWIDTH 1152 0
DWIDTH 16 0
BBX 12 5 3 0
BITMAP
FFF0
0000
0000
FFF0
FFF0
ENDCHAR
STARTCHAR 062
ENCODING 62
SWIDTH 1152 0
DWIDTH 16 0
BBX 15 14 1 -3
BITMAP
E000
EC00
EC00
ECC0
ECC8
ECC8
ECCA
ECCA
ECC8
ECC0
EC00
EC00
E000
E000
ENDCHAR
STARTCHAR 063
ENCODING 63
SWIDTH 1152 0
DWIDTH 16 0
BBX 9 12 4 -3
BITMAP
3F00
E380
E180
4080
0180
0700
0E00
1800
1800
1800
3C00
1800
ENDCHAR
STARTCHAR 064
ENCODING 64
SWIDTH 1152 0
DWIDTH 16 0
BBX 12 15 2 -4
BITMAP
0E00
1F00
1F00
0E00
0F00
3FC0
7FE0
EF30
CF30
DF80
1F80
39C0
31C0
31C0
71C0
ENDCHAR
STARTCHAR 065
ENCODING 65
SWIDTH 1152 0
DWIDTH 16 0
BBX 14 12 1 -2
BITMAP
1E00
7F00
47C0
0EE0
1CE0
1860
3870
3870
3FF8
7038
F03C
F03C
ENDCHAR
STARTCHAR 066
ENCODING 66
SWIDTH 1152 0
DWIDTH 16 0
BBX 12 11 2 -2
BITMAP
FF00
3FC0
38E0
38E0
38C0
3FE0
3830
3830
3860
3FC0
3F00
ENDCHAR
STARTCHAR 067
ENCODING 67
SWIDTH 1152 0
DWIDTH 16 0
BBX 13 11 2 -2
BITMAP
1FE0
3FF0
7838
F030
E060
E000
E000
F010
7830
3FE0
0F80
ENDCHAR
STARTCHAR 068
ENCODING 68
SWIDTH 1152 0
DWIDTH 16 0
BBX 14 11 1 -2
BITMAP
7FE0
7FF0
6038
601C
601C
601C
601C
601C
603C
7FF0
FFE0
ENDCHAR
STARTCHAR 069
ENCODING 69
SWIDTH 1152 0
DWIDTH 16 0
BBX 10 11 3 -2
BITMAP
FFC0
7FC0
6000
6000
6000
7E00
7E00
6000
6000
7FC0
7FC0
ENDCHAR
STARTCHAR 070
ENCODING 70
SWIDTH 1152 0
DWIDTH 16 0
BBX 11 11 3 -2
BITMAP
FFE0
FFE0
E000
E000
E000
FE00
FF00
E000
E000
E000
E000
ENDCHAR
STARTCHAR 071
ENCODING 71
SWIDTH 1152 0
DWIDTH 16 0
BBX 14 12 1 -2
BITMAP
07C0
3FF0
3C38
781C
7000
E000
E070
E0F8
70DC
781C
3FF8
1FF0
ENDCHAR
STARTCHAR 072
ENCODING 72
SWIDTH 1152 0
DWIDTH 16 0
BBX 11 11 3 -2
BITMAP
E0E0
E0E0
E0E0
E0E0
E0E0
FFE0
E0E0
E0E0
E0E0
E0E0
E0E0
ENDCHAR
STARTCHAR 073
ENCODING 73
SWIDTH 1152 0
DWIDTH 16 0
BBX 7 11 5 -2
BITMAP
FE
38
38
38
38
38
38
38
38
FE
FE
ENDCHAR
STARTCHAR 074
ENCODING 74
SWIDTH 1152 0
DWIDTH 16 0
BBX 12 12 3 -2
BITMAP
01F0
01F0
00E0
00E0
00E0
00E0
00E0
00E0
C0E0
C0E0
7FC0
7FC0
ENDCHAR
STARTCHAR 075
ENCODING 75
SWIDTH 1152 0
DWIDTH 16 0
BBX 14 12 1 -2
BITMAP
0060
F8F8
71C8
6380
6700
6700
7E00
7E00
670C
638C
70F8
F0F8
ENDCHAR
STARTCHAR 076
ENCODING 76
SWIDTH 1152 0
DWIDTH 16 0
BBX 10 11 3 -2
BITMAP
F000
7000
7000
7000
7000
7000
7000
7000
7040
7FC0
7FC0
ENDCHAR
STARTCHAR 077
ENCODING 77
SWIDTH 1152 0
DWIDTH 16 0
BBX 15 11 0 -2
BITMAP
180C
181C
1C3C
3C3E
3E7E
336E
336E
71CE
708E
F80E
F80E
ENDCHAR
STARTCHAR 078
ENCODING 78
SWIDTH 1152 0
DWIDTH 16 0
BBX 12 11 2 -2
BITMAP
0030
E070
F070
D870
CC70
CE70
C760
C3E0
C1E0
C0E0
C0E0
ENDCHAR
STARTCHAR 079
ENCODING 79
SWIDTH 1152 0
DWIDTH 16 0
BBX 14 10 1 -2
BITMAP
3FE0
7FF0
F818
F01C
E01C
E01C
6018
7038
1FE0
0780
ENDCHAR
STARTCHAR 080
ENCODING 80
SWIDTH 1152 0
DWIDTH 16 0
BBX 12 11 2 -2
BITMAP
7FC0
2070
2030
2030
2070
3FC0
2000
2000
2000
6000
E000
ENDCHAR
STARTCHAR 081
ENCODING 81
SWIDTH 1152 0
DWIDTH 16 0
BBX 15 13 1 -3
BITMAP
1F80
7FE0
7FF0
E078
E018
E00C
C00C
C00C
E18C
60C8
3FF8
1FFC
0006
ENDCHAR
STARTCHAR 082
ENCODING 82
SWIDTH 1152 0
DWIDTH 16 0
BBX 14 12 1 -2
BITMAP
FF00
7FC0
60E0
6060
60E0
60E0
7F00
6780
61C0
70EC
787C
F838
ENDCHAR
STARTCHAR 083
ENCODING 83
SWIDTH 1152 0
DWIDTH 16 0
BBX 14 11 1 -2
BITMAP
07E0
1C78
381C
3000
3C00
0FE0
0070
E018
7038
1FF0
07C0
ENDCHAR
STARTCHAR 084
ENCODING 84
SWIDTH 1152 0
DWIDTH 16 0
BBX 14 12 1 -2
BITMAP
8004
FFFC
FFFC
0780
0780
0780
0780
0780
0780
0780
0780
0FC0
ENDCHAR
STARTCHAR 085
ENCODING 85
SWIDTH 1152 0
DWIDTH 16 0
BBX 12 11 2 -2
BITMAP
E070
E070
E070
E070
E070
E070
E070
E070
E070
7FC0
3FC0
ENDCHAR
STARTCHAR 086
ENCODING 86
SWIDTH 1152 0
DWIDTH 16 0
BBX 14 11 1 -2
BITMAP
F87C
601C
6018
3030
3030
38E0
38E0
18C0
0D80
0700
0700
ENDCHAR
STARTCHAR 087
ENCODING 87
SWIDTH 1152 0
DWIDTH 16 0
BBX 14 11 1 -2
BITMAP
E01C
6018
6018
6018
6018
6318
6798
6ED8
7C78
7038
6010
ENDCHAR
STARTCHAR 088
ENCODING 88
SWIDTH 1152 0
DWIDTH 16 0
BBX 14 12 1 -2
BITMAP
E01C
3030
1C70
0CC0
0780
0780
0FC0
0CC0
1870
3870
E01C
E01C
ENDCHAR
STARTCHAR 089
ENCODING 89
SWIDTH 1152 0
DWIDTH 16 0
BBX 14 13 1 -3
BITMAP
E01C
6018
3030
1860
08C0
0CC0
0780
0300
0300
0300
0300
0FC0
0780
ENDCHAR
STARTCHAR 090
ENCODING 90
SWIDTH 1152 0
DWIDTH 16 0
BBX 14 11 1 -2
BITMAP
4000
FFF8
00E0
01C0
03C0
0700
0F00
1C00
3804
FFF8
FFF0
ENDCHAR
STARTCHAR 091
ENCODING 91
SWIDTH 1152 0
DWIDTH 16 0
BBX 7 14 5 -3
BITMAP
FE
FE
C0
C0
C0
C0
C0
C0
C0
C0
C0
C0
FE
FE
ENDCHAR
STARTCHAR 092
ENCODING 92
SWIDTH 1152 0
DWIDTH 16 0
BBX 9 11 4 -2
BITMAP
C000
6000
6000
3000
1800
0C00
0C00
0600
0300
0180
0180
ENDCHAR
STARTCHAR 093
ENCODING 93
SWIDTH 1152 0
DWIDTH 16 0
BBX 7 14 5 -3
BITMAP
FE
FE
06
06
66
66
06
06
06
06
06
06
FE
FE
ENDCHAR
STARTCHAR 094
ENCODING 94
SWIDTH 1152 0
DWIDTH 16 0
BBX 12 7 2 2
BITMAP
0600
0F00
1F80
3FC0
79C0
F0F0
E070
ENDCHAR
STARTCHAR 095
ENCODING 95
SWIDTH 1152 0
DWIDTH 16 0
BBX 16 2 0 -3
BITMAP
FFFF
FFFF
ENDCHAR
STARTCHAR 096
ENCODING 96
SWIDTH 1152 0
DWIDTH 16 0
BBX 4 5 7 4
BITMAP
60
F0
60
20
30
ENDCHAR
STARTCHAR 097
ENCODING 97
SWIDTH 1152 0
DWIDTH 16 0
BBX 10 8 4 -2
BITMAP
0080
3D80
E700
C300
C300
C340
7F80
3980
ENDCHAR
STARTCHAR 098
ENCODING 98
SWIDTH 1152 0
DWIDTH 16 0
BBX 11 13 3 -3
BITMAP
1000
3000
F000
3000
3000
3000
3FC0
3CC0
3060
3060
3FC0
FF80
8000
ENDCHAR
STARTCHAR 099
ENCODING 99
SWIDTH 1152 0
DWIDTH 16 0
BBX 9 8 4 -2
BITMAP
1E00
3F80
E000
E000
E000
E000
7F80
3F00
ENDCHAR
STARTCHAR 100
ENCODING 100
SWIDTH 1152 0
DWIDTH 16 0
BBX 11 12 3 -2
BITMAP
0180
01C0
01C0
01C0
01C0
1FC0
73C0
E1C0
C1C0
C1C0
FEE0
7E40
ENDCHAR
STARTCHAR 101
ENCODING 101
SWIDTH 1152 0
DWIDTH 16 0
BBX 9 8 4 -2
BITMAP
3F80
7F80
E380
FF00
C000
E000
7F80
1F00
ENDCHAR
STARTCHAR 102
ENCODING 102
SWIDTH 1152 0
DWIDTH 16 0
BBX 9 11 4 -2
BITMAP
1F00
1D80
1C00
1C00
1C00
FF80
FF80
1C00
1C00
1C00
1C00
ENDCHAR
STARTCHAR 103
ENCODING 103
SWIDTH 1152 0
DWIDTH 16 0
BBX 9 12 4 -3
BITMAP
1C00
3F80
6380
6300
6300
1C00
0F80
7200
E200
9C00
9800
E000
ENDCHAR
STARTCHAR 104
ENCODING 104
SWIDTH 1152 0
DWIDTH 16 0
BBX 11 11 4 -2
BITMAP
4000
C000
C000
C000
C000
C000
DC00
E600
E200
C360
C3E0
ENDCHAR
STARTCHAR 105
ENCODING 105
SWIDTH 1152 0
DWIDTH 16 0
BBX 5 10 6 -2
BITMAP
70
00
00
70
70
70
70
70
70
F8
ENDCHAR
STARTCHAR 106
ENCODING 106
SWIDTH 1152 0
DWIDTH 16 0
BBX 9 13 3 -2
BITMAP
0180
0000
0000
0080
0180
0180
0180
0180
0180
8180
C380
7E00
3C00
ENDCHAR
STARTCHAR 107
ENCODING 107
SWIDTH 1152 0
DWIDTH 16 0
BBX 11 10 3 -3
BITMAP
6000
6000
63C0
6640
6C00
7C00
6E00
63A0
E1E0
8000
ENDCHAR
STARTCHAR 108
ENCODING 108
SWIDTH 1152 0
DWIDTH 16 0
BBX 9 12 3 -2
BITMAP
0380
0780
0C80
1980
1300
1300
3E00
3800
E180
2380
3E00
1C00
ENDCHAR
STARTCHAR 109
ENCODING 109
SWIDTH 1152 0
DWIDTH 16 0
BBX 13 8 2 -2
BITMAP
1CF0
3EF0
E398
E318
C238
C238
C070
C060
ENDCHAR
STARTCHAR 110
ENCODING 110
SWIDTH 1152 0
DWIDTH 16 0
BBX 13 8 2 -2
BITMAP
3000
7F00
B180
3180
3180
3188
70F8
F070
ENDCHAR
STARTCHAR 111
ENCODING 111
SWIDTH 1152 0
DWIDTH 16 0
BBX 9 7 4 -2
BITMAP
3E00
E380
C080
C080
C180
7F00
1E00
ENDCHAR
STARTCHAR 112
ENCODING 112
SWIDTH 1152 0
DWIDTH 16 0
BBX 9 9 4 -3
BITMAP
7F80
6180
6080
7F80
7F80
6000
6000
6000
C000
ENDCHAR
STARTCHAR 113
ENCODING 113
SWIDTH 1152 0
DWIDTH 16 0
BBX 11 11 3 -3
BITMAP
0080
3D80
E780
E380
C380
E380
3D80
0180
01E0
0180
0100
ENDCHAR
STARTCHAR 114
ENCODING 114
SWIDTH 1152 0
DWIDTH 16 0
BBX 10 8 4 -2
BITMAP
2000
3000
7FC0
7380
6000
6000
C000
C000
ENDCHAR
STARTCHAR 115
ENCODING 115
SWIDTH 1152 0
DWIDTH 16 0
BBX 9 8 4 -2
BITMAP
1E00
3F80
6080
3800
0E00
0300
C300
7E00
ENDCHAR
STARTCHAR 116
ENCODING 116
SWIDTH 1152 0
DWIDTH 16 0
BBX 11 10 3 -2
BITMAP
0C00
0C00
FC00
7FC0
0FE0
0C00
0C00
0C00
0FC0
0F80
ENDCHAR
STARTCHAR 117
ENCODING 117
SWIDTH 1152 0
DWIDTH 16 0
BBX 10 7 3 -2
BITMAP
C0C0
C0C0
C0C0
C0C0
E0C0
7F80
1F00
ENDCHAR
STARTCHAR 118
ENCODING 118
SWIDTH 1152 0
DWIDTH 16 0
BBX 14 8 2 -2
BITMAP
F83C
7018
3030
3860
0CC0
0CC0
0780
0300
ENDCHAR
STARTCHAR 119
ENCODING 119
SWIDTH 1152 0
DWIDTH 16 0
BBX 14 7 1 -2
BITMAP
C00C
6018
7038
3330
37A0
1CE0
0840
ENDCHAR
STARTCHAR 120
ENCODING 120
SWIDTH 1152 0
DWIDTH 16 0
BBX 10 8 3 -2
BITMAP
C0C0
6180
1E00
0C00
0C00
1E00
6180
C0C0
ENDCHAR
STARTCHAR 121
ENCODING 121
SWIDTH 1152 0
DWIDTH 16 0
BBX 9 8 4 -3
BITMAP
E180
6180
3300
3B00
0E00
1C00
3800
F000
ENDCHAR
STARTCHAR 122
ENCODING 122
SWIDTH 1152 0
DWIDTH 16 0
BBX 10 8 4 -2
BITMAP
FFC0
FFC0
0380
0700
1C00
3800
FFC0
FFC0
ENDCHAR
STARTCHAR 123
ENCODING 123
SWIDTH 1152 0
DWIDTH 16 0
BBX 8 14 4 -3
BITMAP
0F
1C
38
30
30
60
C0
60
30
30
30
38
1E
0F
ENDCHAR
STARTCHAR 124
ENCODING 124
SWIDTH 1152 0
DWIDTH 16 0
BBX 2 13 8 -3
BITMAP
C0
C0
C0
C0
C0
C0
C0
C0
C0
C0
C0
C0
C0
ENDCHAR
STARTCHAR 125
ENCODING 125
SWIDTH 1152 0
DWIDTH 16 0
BBX 8 14 4 -3
BITMAP
F0
38
1C
0C
0C
06
03
06
0C
0C
0C
1C
78
F0
ENDCHAR
STARTCHAR 126
ENCODING 126
SWIDTH 1152 0
DWIDTH 16 0
BBX 12 6 2 -1
BITMAP
3C30
E7E0
C1C0
1810
7E70
C1C0
ENDCHAR
STARTCHAR 127
ENCODING 127
SWIDTH 1152 0
DWIDTH 16 0
BBX 16 16 0 -4
BITMAP
FFFF
FFFF
FFFF
FFFF
FFFF
FFFF
FFFF
FFFF
FFFF
FFFF
FFFF
FFFF
FFFF
FFFF
FFFF
FFFF
ENDCHAR
STARTCHAR 128
ENCODING 128
SWIDTH 1152 0
DWIDTH 16 0
BBX 16 15 0 -4
BITMAP
FFFF
E007
C77B
81C1
85D0
1494
D414
1554
D554
1555
D555
1554
D554
1554
D554
ENDCHAR
STARTCHAR 129
ENCODING 129
SWIDTH 1152 0
DWIDTH 16 0
BBX 6 14 1 -3
BITMAP
E0
E0
A0
E0
E0
E0
E0
FC
E0
E0
E0
E0
A0
E0
ENDCHAR
STARTCHAR 130
ENCODING 130
SWIDTH 1152 0
DWIDTH 16 0
BBX 14 11 1 -2
BITMAP
F87C
E01C
E01C
E01C
E01C
E01C
E01C
E01C
7038
3FF0
1FE0
ENDCHAR
STARTCHAR 131
ENCODING 131
SWIDTH 1152 0
DWIDTH 16 0
BBX 14 15 1 -4
BITMAP
0F80
0A80
0F80
0D80
0700
0FC0
1FE0
77B8
E79C
0FC0
0300
0300
0300
0300
0300
ENDCHAR
STARTCHAR 132
ENCODING 132
SWIDTH 1152 0
DWIDTH 16 0
BBX 12 8 3 0
BITMAP
0600
0600
36C0
36C0
B6F0
36C0
36C0
0600
ENDCHAR
STARTCHAR 133
ENCODING 133
SWIDTH 1152 0
DWIDTH 16 0
BBX 9 15 4 -4
BITMAP
1000
3A00
E700
FE80
DB00
7F00
FB00
5F00
BF00
E600
7A00
1800
1800
1800
1800
ENDCHAR
STARTCHAR 134
ENCODING 134
SWIDTH 1152 0
DWIDTH 16 0
BBX 11 11 2 -3
BITMAP
2000
3500
C640
5E00
DE00
3FC0
5F80
FFE0
6780
5E80
1C00
ENDCHAR
STARTCHAR 135
ENCODING 135
SWIDTH 1152 0
DWIDTH 16 0
BBX 12 14 2 -4
BITMAP
1800
0CE0
0500
6630
33E0
1E00
8200
7BC0
1F70
EE00
0600
0600
0600
0600
ENDCHAR
STARTCHAR 136
ENCODING 136
SWIDTH 1152 0
DWIDTH 16 0
BBX 16 16 0 -4
BITMAP
0CC3
0CC2
D10C
7230
0D06
FD31
02C8
02C8
CD17
32C1
012C
0128
CCD7
CCD7
032C
36D5
ENDCHAR
STARTCHAR 137
ENCODING 137
SWIDTH 1152 0
DWIDTH 16 0
BBX 16 16 0 -4
BITMAP
8942
0884
9108
1000
8210
A220
2401
C080
1108
8232
4040
8900
9405
A090
5400
BDDD
ENDCHAR
STARTCHAR 138
ENCODING 138
SWIDTH 1152 0
DWIDTH 16 0
BBX 16 3 0 2
BITMAP
2222
FFFF
CDD9
ENDCHAR
STARTCHAR 139
ENCODING 139
SWIDTH 1152 0
DWIDTH 16 0
BBX 15 15 1 -4
BITMAP
0840
2108
0000
0848
0000
0000
5C70
3FF8
638C
0100
8102
1FF0
2108
2008
1FF0
ENDCHAR
STARTCHAR 140
ENCODING 140
SWIDTH 1152 0
DWIDTH 16 0
BBX 16 10 0 -3
BITMAP
003C
0034
17FE
3C7A
6F47
F9C7
CFFD
D114
DEC2
DF92
ENDCHAR
STARTCHAR 141
ENCODING 141
SWIDTH 1152 0
DWIDTH 16 0
BBX 15 15 1 -4
BITMAP
0A80
1E80
1782
1A86
0F86
150C
171C
3F58
7FF0
FF70
FFC0
FF40
FFC0
FFC0
FFC0
ENDCHAR
STARTCHAR 142
ENCODING 142
SWIDTH 1152 0
DWIDTH 16 0
BBX 13 15 1 -3
BITMAP
0300
0FC0
3FE0
3FE0
DFD8
EFB8
F778
FAF8
FDF8
FDF8
7DF8
3DF0
1DC0
0D80
0700
ENDCHAR
STARTCHAR 143
ENCODING 143
SWIDTH 1152 0
DWIDTH 16 0
BBX 16 16 0 -4
BITMAP
8000
4001
2002
1004
0808
0410
0220
0000
0080
00C0
0020
0220
0808
0000
2002
2001
ENDCHAR
STARTCHAR 144
ENCODING 144
SWIDTH 1152 0
DWIDTH 16 0
BBX 16 16 0 -4
BITMAP
8000
4001
2002
1004
0808
0410
0220
0000
0080
00C0
0020
0220
0808
0000
2002
2001
ENDCHAR
STARTCHAR 145
ENCODING 145
SWIDTH 1152 0
DWIDTH 16 0
BBX 16 16 0 -4
BITMAP
BDED
FFFF
5FFB
F77F
FFFF
FFF5
7FDF
FEFF
EFD7
FD7F
7FCF
F7FF
FFFF
FFAB
B5B5
FFFF
ENDCHAR
STARTCHAR 146
ENCODING 146
SWIDTH 1152 0
DWIDTH 16 0
BBX 16 16 0 -4
BITMAP
FFFF
7DEF
39C7
8210
FFFF
7DEF
39C7
39C7
FFFF
FFFF
39C7
39C7
FFFF
FFFF
38C6
BAD6
ENDCHAR
STARTCHAR 147
ENCODING 147
SWIDTH 1152 0
DWIDTH 16 0
BBX 12 12 3 -3
BITMAP
0400
0600
0F00
1F00
3FC0
5560
7FE0
EB10
3A60
1E80
0700
0200
ENDCHAR
STARTCHAR 148
ENCODING 148
SWIDTH 1152 0
DWIDTH 16 0
BBX 16 15 0 -4
BITMAP
3D36
5FBF
1E1D
0000
FDFF
FDF7
FFBB
0000
6F3A
FFBE
7E3E
0000
3E7D
3E7F
7EBE
ENDCHAR
STARTCHAR 149
ENCODING 149
SWIDTH 1152 0
DWIDTH 16 0
BBX 16 16 0 -4
BITMAP
FDF7
7DEF
AEBB
7B76
0B6B
FDEF
A7DE
5EE3
0EB6
F6F4
8BD3
7D1B
8DEE
7BFC
AF26
DD6E
ENDCHAR
STARTCHAR 150
ENCODING 150
SWIDTH 1152 0
DWIDTH 16 0
BBX 16 15 0 -4
BITMAP
3D36
53BF
1E1D
0000
FDBD
D5F5
E7BB
0000
6F3A
DDB4
6A1A
0000
3E7D
1C5B
6ABA
ENDCHAR
STARTCHAR 151
ENCODING 151
SWIDTH 1152 0
DWIDTH 16 0
BBX 15 9 1 -2
BITMAP
1C06
7F8E
FFD8
C0F2
9C64
3F0E
63DC
C070
8000
ENDCHAR
STARTCHAR 152
ENCODING 152
SWIDTH 1152 0
DWIDTH 16 0
BBX 15 12 0 -2
BITMAP
0002
0006
000E
003C
0078
21E0
23C0
3F00
1E00
3C00
7600
C300
ENDCHAR
STARTCHAR 153
ENCODING 153
SWIDTH 1152 0
DWIDTH 16 0
BBX 13 15 1 -4
BITMAP
E000
7800
3C00
1FC0
1FF0
1C70
1C30
1FF0
1FF0
1C18
1C08
0FF8
17F8
3C00
7C00
ENDCHAR
STARTCHAR 154
ENCODING 154
SWIDTH 1152 0
DWIDTH 16 0
BBX 13 11 1 -2
BITMAP
0018
1FF8
3FF8
7CD8
7E78
F800
E000
E000
E200
7F70
3FE0
ENDCHAR
STARTCHAR 155
ENCODING 155
SWIDTH 1152 0
DWIDTH 16 0
BBX 15 12 0 -3
BITMAP
1FF0
1FF8
1C3C
1C1E
7C0E
F40E
740E
3C0E
1C1E
1C3C
1FF0
1FF0
ENDCHAR
STARTCHAR 156
ENCODING 156
SWIDTH 1152 0
DWIDTH 16 0
BBX 15 12 1 -3
BITMAP
FFF8
347C
1C1E
1C0E
1C0E
1C0E
1C0E
1C0E
1C0E
141E
7FFC
FFF8
ENDCHAR
STARTCHAR 157
ENCODING 157
SWIDTH 1152 0
DWIDTH 16 0
BBX 16 16 0 -4
BITMAP
8000
4001
2002
1004
0808
0410
0220
0000
0080
00C0
0020
0220
0808
0000
2002
2001
ENDCHAR
STARTCHAR 158
ENCODING 158
SWIDTH 1152 0
DWIDTH 16 0
BBX 10 15 3 -3
BITMAP
0E00
0E00
0C00
1C00
3000
3000
7FC0
FFC0
0180
0100
0700
2600
2C00
3800
3E00
ENDCHAR
STARTCHAR 159
ENCODING 159
SWIDTH 1152 0
DWIDTH 16 0
BBX 16 12 0 -2
BITMAP
61C0
3304
1204
16F8
C7A6
E6A4
136B
0B29
D9E6
2ECC
03BB
0FB7
ENDCHAR
STARTCHAR 160
ENCODING 160
SWIDTH 1152 0
DWIDTH 16 0
BBX 15 13 1 -2
BITMAP
03C0
0240
E3C6
E3C6
0000
77DE
77DE
07C0
07C0
1C18
1C18
001E
3C1E
ENDCHAR
STARTCHAR 161
ENCODING 161
SWIDTH 1152 0
DWIDTH 16 0
BBX 16 15 0 -3
BITMAP
0001
33E2
3AB6
1FE8
0FF6
FDBF
FDB7
CDB3
E433
07F7
2FF0
1C1C
1414
3C1E
641B
ENDCHAR
STARTCHAR 162
ENCODING 162
SWIDTH 1152 0
DWIDTH 16 0
BBX 16 16 0 -4
BITMAP
00E0
01F4
1CE6
7006
F1E6
F9EE
7CCE
3FFE
07F8
07F8
1FFC
7FFE
381F
3807
0C38
1838
ENDCHAR
STARTCHAR 163
ENCODING 163
SWIDTH 1152 0
DWIDTH 16 0
BBX 15 16 1 -4
BITMAP
0002
0066
003C
001C
000C
000C
001C
003C
7C3C
7C7C
EFFC
FFFC
FFF8
F7F0
23C0
3F80
ENDCHAR
STARTCHAR 164
ENCODING 164
SWIDTH 1152 0
DWIDTH 16 0
BBX 13 15 2 -4
BITMAP
3780
7D40
F7C0
E380
C4E0
9FF8
3F98
3980
3E00
0FE0
1FE0
3FF0
7FF0
1810
3818
ENDCHAR
STARTCHAR 165
ENCODING 165
SWIDTH 1152 0
DWIDTH 16 0
BBX 16 16 0 -4
BITMAP
01C0
0140
01C0
0000
39CC
7DDE
7AAF
F94F
FFFF
FFFF
EFDF
6BFF
4FE1
4361
0760
0670
ENDCHAR
STARTCHAR 166
ENCODING 166
SWIDTH 1152 0
DWIDTH 16 0
BBX 16 16 0 -4
BITMAP
000F
00DE
03BE
07BF
067E
07FE
0DCF
0CDC
3BF8
F318
0F80
0FC0
03FC
0DFF
1A3C
1300
ENDCHAR
STARTCHAR 167
ENCODING 167
SWIDTH 1152 0
DWIDTH 16 0
BBX 15 13 1 -2
BITMAP
D800
D800
F800
A802
F806
DE06
FFF6
3FFC
3FF8
3F7C
3736
2236
226E
ENDCHAR
STARTCHAR 168
ENCODING 168
SWIDTH 1152 0
DWIDTH 16 0
BBX 16 16 0 -4
BITMAP
0200
0380
07CE
01CE
01DC
F1F8
79FB
7DF7
0FEF
0FCE
07F8
03F8
01F8
00F8
1FFE
1FFE
ENDCHAR
STARTCHAR 169
ENCODING 169
SWIDTH 1152 0
DWIDTH 16 0
BBX 16 14 0 -3
BITMAP
3004
3416
7636
F3E6
7AA7
97FC
F9C7
F367
EBEB
51CD
17FC
03E8
3E3E
2A0A
ENDCHAR
STARTCHAR 170
ENCODING 170
SWIDTH 1152 0
DWIDTH 16 0
BBX 15 16 1 -4
BITMAP
E3E6
72A6
3BFC
1E38
0FF0
07E0
87E2
67E6
700C
BFF8
7BDC
B998
5FFC
2FF8
0EB0
03E0
ENDCHAR
STARTCHAR 171
ENCODING 171
SWIDTH 1152 0
DWIDTH 16 0
BBX 16 12 0 -2
BITMAP
3884
8888
47F0
467B
3C3C
0988
7998
8C3C
0F7B
11C8
3084
6080
ENDCHAR
STARTCHAR 172
ENCODING 172
SWIDTH 1152 0
DWIDTH 16 0
BBX 13 14 2 -3
BITMAP
0FF0
1BD8
1018
1878
0FF8
06F0
0CE0
1FC0
1B80
1300
1E00
3800
7000
C000
ENDCHAR
STARTCHAR 173
ENCODING 173
SWIDTH 1152 0
DWIDTH 16 0
BBX 16 10 0 -3
BITMAP
1206
3607
3E01
6E01
7FFF
3FFF
3FFF
7FBF
8C3B
1806
ENDCHAR
STARTCHAR 174
ENCODING 174
SWIDTH 1152 0
DWIDTH 16 0
BBX 15 13 0 -3
BITMAP
00FC
0102
0268
0402
0832
0862
1406
3004
3834
4868
AF14
9AA8
2140
ENDCHAR
STARTCHAR 175
ENCODING 175
SWIDTH 1152 0
DWIDTH 16 0
BBX 14 14 1 -3
BITMAP
0008
01C8
0768
03E8
03C8
1FC8
3E48
7E9C
7E88
FEF8
FE08
F600
E700
8000
ENDCHAR
STARTCHAR 176
ENCODING 176
SWIDTH 1152 0
DWIDTH 16 0
BBX 9 13 4 -3
BITMAP
1800
2C00
3C00
1E00
1F00
1D80
1C80
2C80
6C80
CA80
0A00
0A00
0A00
ENDCHAR
STARTCHAR 177
ENCODING 177
SWIDTH 1152 0
DWIDTH 16 0
BBX 16 14 0 -3
BITMAP
000F
038F
06CB
0448
1448
2BA8
F7C8
F838
E6C0
E920
6FE0
0EE0
1C70
1C70
ENDCHAR
STARTCHAR 178
ENCODING 178
SWIDTH 1152 0
DWIDTH 16 0
BBX 14 14 2 -4
BITMAP
170C
0D18
0730
1D20
1FC0
1780
1A40
0A00
3F00
3900
3080
3080
60C0
C0E0
ENDCHAR
STARTCHAR 179
ENCODING 179
SWIDTH 1152 0
DWIDTH 16 0
BBX 16 16 0 -4
BITMAP
1002
1002
0E0C
03F0
02D0
07F8
7D2F
7A13
E3F3
7216
03F0
0618
0E0E
1C06
3803
7003
ENDCHAR
STARTCHAR 180
ENCODING 180
SWIDTH 1152 0
DWIDTH 16 0
BBX 15 15 1 -4
BITMAP
0008
0140
0008
000E
07BE
7FF6
7FFE
3F1C
6E38
E0FC
63F8
3FF0
7CF0
1800
0030
ENDCHAR
STARTCHAR 181
ENCODING 181
SWIDTH 1152 0
DWIDTH 16 0
BBX 16 10 0 -1
BITMAP
0F00
7FF9
F3FE
7000
7FFE
1FFF
0007
3FFF
6FFE
F800
ENDCHAR
STARTCHAR 182
ENCODING 182
SWIDTH 1152 0
DWIDTH 16 0
BBX 16 13 0 -3
BITMAP
70A8
F8F8
A890
2048
2153
27AF
68CC
6170
2226
21AB
2206
2502
2E07
ENDCHAR
STARTCHAR 183
ENCODING 183
SWIDTH 1152 0
DWIDTH 16 0
BBX 15 16 0 -4
BITMAP
2210
1122
77F8
06DC
3BF8
C524
01E0
07F0
0DCC
19CC
33E6
27F0
0FF8
0FFC
31FC
08B8
ENDCHAR
STARTCHAR 184
ENCODING 184
SWIDTH 1152 0
DWIDTH 16 0
BBX 13 11 2 -2
BITMAP
8008
6AB0
3560
5FD0
AFA8
5FD0
AFA8
3AE0
3560
4510
8008
ENDCHAR
STARTCHAR 185
ENCODING 185
SWIDTH 1152 0
DWIDTH 16 0
BBX 16 15 0 -4
BITMAP
0220
0220
C3E0
32A0
1BED
361E
37F5
F1F1
C223
7D24
1EDE
001C
0C0C
0C0C
1C0E
ENDCHAR
STARTCHAR 186
ENCODING 186
SWIDTH 1152 0
DWIDTH 16 0
BBX 16 15 0 -4
BITMAP
0002
00C5
01E5
02C6
023E
0A52
1196
443A
4E66
8E12
780A
3002
33C6
7FFA
1E70
ENDCHAR
STARTCHAR 187
ENCODING 187
SWIDTH 1152 0
DWIDTH 16 0
BBX 15 13 0 -3
BITMAP
00E0
01B0
07F8
87FC
4FFE
1DF6
1DFC
03F8
03F8
07F8
07FC
0E06
0C06
ENDCHAR
STARTCHAR 188
ENCODING 188
SWIDTH 1152 0
DWIDTH 16 0
BBX 16 14 0 -4
BITMAP
C180
2340
0DC0
16A0
373F
763F
33AF
378F
0A5E
299E
1808
1034
4038
7038
ENDCHAR
STARTCHAR 189
ENCODING 189
SWIDTH 1152 0
DWIDTH 16 0
BBX 16 16 0 -4
BITMAP
1040
1040
13F6
6FFE
7FBE
7C0E
7006
EE3A
7E39
1E31
0C39
1D80
01C8
1E7C
1200
6206
ENDCHAR
STARTCHAR 190
ENCODING 190
SWIDTH 1152 0
DWIDTH 16 0
BBX 16 16 0 -4
BITMAP
00F8
00A0
00F8
3A78
38BE
F697
F367
C887
7123
FA63
0839
1418
3A9C
FB5F
F81F
3800
ENDCHAR
STARTCHAR 191
ENCODING 191
SWIDTH 1152 0
DWIDTH 16 0
BBX 16 15 0 -4
BITMAP
0001
000F
003F
001E
07FF
1FF8
7FF0
FFF8
FFF8
FFDE
FFCE
ECE0
EC70
7200
3000
ENDCHAR
STARTCHAR 192
ENCODING 192
SWIDTH 1152 0
DWIDTH 16 0
BBX 16 15 0 -4
BITMAP
0078
00E8
C1FC
71EC
31E3
31FD
11F9
0FE0
0FC0
07C0
0EC0
0CC0
0660
0110
0088
ENDCHAR
STARTCHAR 193
ENCODING 193
SWIDTH 1152 0
DWIDTH 16 0
BBX 16 13 0 -3
BITMAP
07FC
3FFF
FC73
F7F9
F7F9
FE19
EE5D
EFDB
F7CB
3F77
3FFB
0003
0001
ENDCHAR
STARTCHAR 194
ENCODING 194
SWIDTH 1152 0
DWIDTH 16 0
BBX 14 9 1 -3
BITMAP
2000
70E0
D3F0
7FFC
3FFC
053C
052C
0004
0004
ENDCHAR
STARTCHAR 195
ENCODING 195
SWIDTH 1152 0
DWIDTH 16 0
BBX 16 16 0 -4
BITMAP
0700
0F98
3E66
77E7
DBF3
6FF3
BDFB
F3FB
07FB
5DFB
79FF
21FF
03BC
039C
0398
0318
ENDCHAR
STARTCHAR 196
ENCODING 196
SWIDTH 1152 0
DWIDTH 16 0
BBX 13 16 2 -4
BITMAP
0E00
1B00
FF80
1F80
FFC0
0FC0
1FC8
3FC8
2FD8
0FF8
0FF0
0FF0
1FC0
1FC0
0CC0
1CC0
ENDCHAR
STARTCHAR 197
ENCODING 197
SWIDTH 1152 0
DWIDTH 16 0
BBX 16 14 0 -3
BITMAP
01C0
53E5
E2A2
A3C6
21C2
0000
09C8
0000
02A0
01C0
0080
01C0
0220
0630
ENDCHAR
STARTCHAR 198
ENCODING 198
SWIDTH 1152 0
DWIDTH 16 0
BBX 16 15 0 -4
BITMAP
0200
01C0
7C40
0620
73FF
FF7F
C3FF
1F68
33FF
E1E9
E1ED
0134
0134
0136
0136
ENDCHAR
STARTCHAR 199
ENCODING 199
SWIDTH 1152 0
DWIDTH 16 0
BBX 15 14 1 -3
BITMAP
03E0
02A0
03E0
07F0
1FF8
7C7C
FEEC
EEE4
CEE4
0FF0
0FF8
1C38
1C3C
7C3E
ENDCHAR
STARTCHAR 200
ENCODING 200
SWIDTH 1152 0
DWIDTH 16 0
BBX 13 11 2 -3
BITMAP
1FC0
7760
7060
FAF0
D070
E798
F8D8
F878
7278
3FE0
1FE0
ENDCHAR
STARTCHAR 201
ENCODING 201
SWIDTH 1152 0
DWIDTH 16 0
BBX 16 14 0 -3
BITMAP
3226
4A29
87F0
D949
9BC7
942A
EB49
E489
6817
7767
2602
0610
0428
0330
ENDCHAR
STARTCHAR 202
ENCODING 202
SWIDTH 1152 0
DWIDTH 16 0
BBX 14 14 1 -3
BITMAP
07E0
03A0
01FC
F3F0
37BC
37EC
3FC0
1FC0
0F20
0730
0300
0300
0400
0400
ENDCHAR
STARTCHAR 203
ENCODING 203
SWIDTH 1152 0
DWIDTH 16 0
BBX 15 15 1 -4
BITMAP
0380
0440
0AA0
0920
1FF0
728C
700C
600C
682C
6444
4284
211C
2018
FC7E
E00E
ENDCHAR
STARTCHAR 204
ENCODING 204
SWIDTH 1152 0
DWIDTH 16 0
BBX 16 15 0 -4
BITMAP
01F8
0378
0638
0618
0FF8
3FFE
71FB
E3F9
C3F8
07F8
07F8
0FFC
0FFC
01FC
00FC
ENDCHAR
STARTCHAR 205
ENCODING 205
SWIDTH 1152 0
DWIDTH 16 0
BBX 15 16 1 -4
BITMAP
0004
150C
1F06
090C
1F86
1F8C
3FE6
3FEC
7FF6
FF36
EF9C
F3CC
FFC0
FFC0
30C0
38F0
ENDCHAR
STARTCHAR 206
ENCODING 206
SWIDTH 1152 0
DWIDTH 16 0
BBX 16 16 0 -4
BITMAP
1F80
1258
1FFF
3FDD
056B
0DF7
0CF7
0C77
0E76
0E7F
3AEF
70D7
F9C1
E981
5181
03C3
ENDCHAR
STARTCHAR 207
ENCODING 207
SWIDTH 1152 0
DWIDTH 16 0
BBX 16 10 0 0
BITMAP
1000
1F00
01C0
FFF0
07FF
0FFF
0EFF
3DFF
E60F
1C03
ENDCHAR
STARTCHAR 208
ENCODING 208
SWIDTH 1152 0
DWIDTH 16 0
BBX 16 15 0 -4
BITMAP
01C0
0080
01C0
A000
2D63
CAD9
616A
02E0
0380
01A0
0530
0620
0000
0220
0E38
ENDCHAR
STARTCHAR 209
ENCODING 209
SWIDTH 1152 0
DWIDTH 16 0
BBX 15 14 1 -3
BITMAP
FFF0
73F8
1A3E
1E1E
1E1E
FE1E
3A1E
1A1E
1E1E
1E1E
723E
3A7C
1FF0
1FE0
ENDCHAR
STARTCHAR 210
ENCODING 210
SWIDTH 1152 0
DWIDTH 16 0
BBX 16 16 0 -4
BITMAP
FFE0
7FF8
09FE
093E
7F0F
3D07
0907
0F07
7D07
1907
0F07
0F07
393E
19FE
0FF8
0FE0
ENDCHAR
STARTCHAR 211
ENCODING 211
SWIDTH 1152 0
DWIDTH 16 0
BBX 13 12 2 -2
BITMAP
7FE0
38F0
3838
3AB8
3838
3838
3838
3B38
3878
38F0
FFE0
34B0
ENDCHAR
STARTCHAR 212
ENCODING 212
SWIDTH 1152 0
DWIDTH 16 0
BBX 16 15 0 -4
BITMAP
0FF8
FE3E
FE1E
CFAF
8FAF
8E0F
0E0F
0ECF
0E0F
1E3E
3FFC
1A2C
1236
EE76
EC44
ENDCHAR
STARTCHAR 213
ENCODING 213
SWIDTH 1152 0
DWIDTH 16 0
BBX 16 11 0 -2
BITMAP
FFF8
1FFE
180F
F887
3887
1887
19C7
7887
180E
FFFC
7FF8
ENDCHAR
STARTCHAR 214
ENCODING 214
SWIDTH 1152 0
DWIDTH 16 0
BBX 13 11 2 -3
BITMAP
0780
0FC0
1CE0
7038
F870
CFC0
C380
7030
7870
0FC0
0F00
ENDCHAR
STARTCHAR 215
ENCODING 215
SWIDTH 1152 0
DWIDTH 16 0
BBX 11 14 3 -3
BITMAP
1B00
7F80
FFC0
C060
C000
C000
DD00
F780
C000
C000
FFC0
FFC0
2480
1B00
ENDCHAR
STARTCHAR 216
ENCODING 216
SWIDTH 1152 0
DWIDTH 16 0
BBX 13 14 2 -3
BITMAP
0780
0FC0
3FE0
78F0
F038
7070
1DC0
0FC0
0FC0
0FC0
1980
1180
1F00
1E00
ENDCHAR
STARTCHAR 217
ENCODING 217
SWIDTH 1152 0
DWIDTH 16 0
BBX 14 13 1 -2
BITMAP
0004
07DC
3FFC
3C3C
701C
7004
E000
E0F0
E3F0
701C
781C
3FF0
7FE0
ENDCHAR
STARTCHAR 218
ENCODING 218
SWIDTH 1152 0
DWIDTH 16 0
BBX 11 11 2 -2
BITMAP
2000
6100
E380
6100
6000
6000
6E00
7F00
6300
63A0
63E0
ENDCHAR
STARTCHAR 219
ENCODING 219
SWIDTH 1152 0
DWIDTH 16 0
BBX 12 13 2 -2
BITMAP
0080
03E0
2280
63E0
E0A0
63E0
6080
6000
6E00
7F00
6300
63B0
63F0
ENDCHAR
STARTCHAR 220
ENCODING 220
SWIDTH 1152 0
DWIDTH 16 0
BBX 14 13 1 -3
BITMAP
0C04
7838
F870
3838
1818
1818
3FF0
3C70
1818
1818
7838
7C7C
1010
ENDCHAR
STARTCHAR 221
ENCODING 221
SWIDTH 1152 0
DWIDTH 16 0
BBX 14 13 1 -3
BITMAP
0030
005C
0030
0000
0000
0030
0030
0074
0038
F030
D83C
6CE0
0FC0
ENDCHAR
STARTCHAR 222
ENCODING 222
SWIDTH 1152 0
DWIDTH 16 0
BBX 15 12 1 -2
BITMAP
03FE
01FE
0078
0050
0050
0060
0050
0060
F850
F060
39F0
3FF0
ENDCHAR
STARTCHAR 223
ENCODING 223
SWIDTH 1152 0
DWIDTH 16 0
BBX 14 13 1 -3
BITMAP
FE00
2A00
3A00
1E00
1600
1A00
1A00
1A00
1A0C
160C
17FC
1924
3FFC
ENDCHAR
STARTCHAR 224
ENCODING 224
SWIDTH 1152 0
DWIDTH 16 0
BBX 15 14 0 -3
BITMAP
FFE0
7F80
1F00
1F00
1F00
1F00
1F00
1F00
1F06
1F0E
1FFE
1FFE
7FFE
FFFE
ENDCHAR
STARTCHAR 225
ENCODING 225
SWIDTH 1152 0
DWIDTH 16 0
BBX 12 9 1 -3
BITMAP
FFC0
1C70
1C30
1C70
1FE0
1800
1800
1800
1000
ENDCHAR
STARTCHAR 226
ENCODING 226
SWIDTH 1152 0
DWIDTH 16 0
BBX 13 12 1 -4
BITMAP
FFF0
3FF8
1E18
1E18
FE18
3FF8
1FF0
1C00
1C00
1C00
1800
1000
ENDCHAR
STARTCHAR 227
ENCODING 227
SWIDTH 1152 0
DWIDTH 16 0
BBX 13 12 1 -4
BITMAP
FFE0
3FF0
0C38
FC38
3C38
0FF0
FFE0
3C00
1C00
1C00
1C00
0C00
ENDCHAR
STARTCHAR 228
ENCODING 228
SWIDTH 1152 0
DWIDTH 16 0
BBX 12 15 2 -4
BITMAP
0200
8010
4220
2240
0000
FFC0
7FE0
38F0
3870
3FF0
3F80
3800
3800
3800
3000
ENDCHAR
STARTCHAR 229
ENCODING 229
SWIDTH 1152 0
DWIDTH 16 0
BBX 14 15 1 -4
BITMAP
1C04
3398
60F0
0000
FFE0
7FF0
1C30
FC30
7C70
1FC0
FF80
3800
1800
1800
0800
ENDCHAR
STARTCHAR 230
ENCODING 230
SWIDTH 1152 0
DWIDTH 16 0
BBX 10 12 3 -3
BITMAP
7F80
0000
0000
0000
FFC0
71C0
70C0
71C0
7FC0
6000
6000
4000
ENDCHAR
STARTCHAR 231
ENCODING 231
SWIDTH 1152 0
DWIDTH 16 0
BBX 13 14 1 -3
BITMAP
1FE0
1FE0
0000
FFF0
3FF8
1E18
1E18
FE18
3FF0
1FE0
1C00
1C00
1C00
1800
ENDCHAR
STARTCHAR 232
ENCODING 232
SWIDTH 1152 0
DWIDTH 16 0
BBX 14 13 1 -3
BITMAP
FFE0
FFF0
DFF8
9C38
1C1C
1C0C
1FFC
1FF8
1C00
1C00
3C00
7C00
FC00
ENDCHAR
STARTCHAR 233
ENCODING 233
SWIDTH 1152 0
DWIDTH 16 0
BBX 13 12 2 -3
BITMAP
0040
00C0
1FC0
71C0
E0C0
E0C0
F1C0
7FC0
00C8
00F0
00E0
00C0
ENDCHAR
STARTCHAR 234
ENCODING 234
SWIDTH 1152 0
DWIDTH 16 0
BBX 15 15 1 -3
BITMAP
8000
E000
FFC0
7FF0
7C78
701C
E01C
E00E
E00E
E00E
E0CE
707C
3C3C
1FEE
07C6
ENDCHAR
STARTCHAR 235
ENCODING 235
SWIDTH 1152 0
DWIDTH 16 0
BBX 15 15 1 -3
BITMAP
8004
E00C
FFFC
7FF8
7C78
701C
E01C
E00E
E00E
E00E
E0CE
707C
3C38
1FEE
07C6
ENDCHAR
STARTCHAR 236
ENCODING 236
SWIDTH 1152 0
DWIDTH 16 0
BBX 15 13 0 -3
BITMAP
C1C0
7FF0
3C38
0C08
0C18
0C38
0FF0
0FC0
0CF0
0C78
0818
080C
0002
ENDCHAR
STARTCHAR 237
ENCODING 237
SWIDTH 1152 0
DWIDTH 16 0
BBX 16 11 0 -2
BITMAP
0356
0154
01FD
1F07
0600
1FE0
07F0
F038
38F0
1FC0
6AB0
ENDCHAR
STARTCHAR 238
ENCODING 238
SWIDTH 1152 0
DWIDTH 16 0
BBX 15 12 1 -3
BITMAP
03F0
0FF8
1E1E
180C
1808
1F80
87F0
8038
E018
FFF8
FFF0
8F80
ENDCHAR
STARTCHAR 239
ENCODING 239
SWIDTH 1152 0
DWIDTH 16 0
BBX 13 9 2 -2
BITMAP
1040
3260
3260
6030
E038
F078
F078
7FF0
3FE0
ENDCHAR
STARTCHAR 240
ENCODING 240
SWIDTH 1152 0
DWIDTH 16 0
BBX 13 14 3 -3
BITMAP
8000
8000
81F8
C070
C070
C070
E070
E070
E070
E070
E070
E0F0
7FE0
7FC0
ENDCHAR
STARTCHAR 241
ENCODING 241
SWIDTH 1152 0
DWIDTH 16 0
BBX 12 14 3 -3
BITMAP
8010
8010
8010
C030
C030
C930
E970
E970
E070
E070
E070
E070
7FC0
3FC0
ENDCHAR
STARTCHAR 242
ENCODING 242
SWIDTH 1152 0
DWIDTH 16 0
BBX 15 14 1 -3
BITMAP
8C62
8442
C006
C386
C106
E00E
E00E
F01E
F01E
F01E
783C
7C7C
1FF0
0FF0
ENDCHAR
STARTCHAR 243
ENCODING 243
SWIDTH 1152 0
DWIDTH 16 0
BBX 14 11 1 -3
BITMAP
0004
E00C
701C
783C
3838
3C70
0C60
0FE0
07C0
0380
0100
ENDCHAR
STARTCHAR 244
ENCODING 244
SWIDTH 1152 0
DWIDTH 16 0
BBX 15 14 1 -3
BITMAP
5000
2050
0020
0280
C10E
F00C
783C
1830
1C78
0C60
0FF0
0380
0380
0100
ENDCHAR
STARTCHAR 245
ENCODING 245
SWIDTH 1152 0
DWIDTH 16 0
BBX 14 14 1 -3
BITMAP
1FF0
1FF0
0000
0000
E00C
700C
3838
1830
3C70
0C60
3EF0
0380
0FC0
0100
ENDCHAR
STARTCHAR 246
ENCODING 246
SWIDTH 1152 0
DWIDTH 16 0
BBX 16 10 0 -2
BITMAP
2800
5400
FE1F
7C0F
1806
1884
0DCC
0DEC
0738
0210
ENDCHAR
STARTCHAR 247
ENCODING 247
SWIDTH 1152 0
DWIDTH 16 0
BBX 15 14 1 -3
BITMAP
8004
800E
C000
C006
C00A
E000
E00A
E10C
738E
7BCE
7EFE
7C7C
701C
600C
ENDCHAR
STARTCHAR 248
ENCODING 248
SWIDTH 1152 0
DWIDTH 16 0
BBX 15 14 1 -3
BITMAP
8062
8E62
CE06
E0EE
E0EE
E00E
E00E
E00E
638C
67CC
7EFC
7C7C
3018
2008
ENDCHAR
STARTCHAR 249
ENCODING 249
SWIDTH 1152 0
DWIDTH 16 0
BBX 15 14 1 -3
BITMAP
8002
8002
8006
C006
C10E
C10E
E38E
E38E
E38E
E7CE
FEFE
FC7E
F01E
E00E
ENDCHAR
STARTCHAR 250
ENCODING 250
SWIDTH 1152 0
DWIDTH 16 0
BBX 15 8 1 -2
BITMAP
3FFC
7FF8
C0E0
81C0
0700
0E06
3FFC
7FF8
ENDCHAR
STARTCHAR 251
ENCODING 251
SWIDTH 1152 0
DWIDTH 16 0
BBX 11 11 3 -2
BITMAP
FFE0
C060
8060
01C0
03C0
0F00
1E00
7820
7060
FFE0
FFE0
ENDCHAR
STARTCHAR 252
ENCODING 252
SWIDTH 1152 0
DWIDTH 16 0
BBX 14 15 1 -4
BITMAP
3FF8
3FF8
3018
FC38
78E0
31C0
0700
0E00
3C00
3800
3FF8
3FF8
0008
001C
0008
ENDCHAR
STARTCHAR 253
ENCODING 253
SWIDTH 1152 0
DWIDTH 16 0
BBX 12 14 3 -3
BITMAP
FFF0
C930
B6F0
00D0
01A0
0360
0D80
1B00
6C00
D800
7FE0
EDA0
B6E0
FFE0
ENDCHAR
STARTCHAR 254
ENCODING 254
SWIDTH 1152 0
DWIDTH 16 0
BBX 16 13 0 -3
BITMAP
7FFF
3FFF
003F
003F
00FC
01F8
07E0
0FC0
3F00
7E00
FFFC
FFFE
FFFF
ENDCHAR
STARTCHAR 255
ENCODING 255
SWIDTH 1152 0
DWIDTH 16 0
BBX 15 13 1 -3
BITMAP
7878
CDFC
C78C
0018
0070
00E0
0380
0700
1E00
3800
E3E6
EFFC
3800
ENDCHAR
ENDFONT
